<?xml version="1.0" standalone="no"?>
<!DOCTYPE svg PUBLIC "-//W3C//DTD SVG 20010904//EN"
 "http://www.w3.org/TR/2001/REC-SVG-20010904/DTD/svg10.dtd">
<svg version="1.0" xmlns="http://www.w3.org/2000/svg"
 width="1829.000000pt" height="1829.000000pt" viewBox="0 0 1829.000000 1829.000000"
 preserveAspectRatio="xMidYMid meet">

<g transform="translate(0.000000,1829.000000) scale(0.100000,-0.100000)"
fill="#000000" stroke="none">
<path d="M10760 17845 c-14 -8 -46 -25 -72 -37 -60 -30 -158 -108 -228 -182
-30 -32 -88 -92 -129 -134 -41 -42 -89 -99 -106 -127 -18 -27 -43 -59 -55 -70
-12 -11 -31 -38 -42 -60 -11 -22 -40 -66 -64 -98 -24 -33 -44 -65 -44 -73 0
-8 -20 -36 -44 -62 -32 -34 -49 -64 -61 -107 -10 -33 -28 -74 -41 -91 -13 -18
-35 -62 -49 -99 -14 -38 -39 -92 -56 -121 -19 -34 -37 -89 -50 -151 -11 -53
-26 -106 -34 -118 -8 -11 -21 -29 -29 -40 -8 -11 -24 -63 -36 -115 -11 -54
-28 -102 -38 -113 -10 -10 -40 -20 -69 -24 -43 -5 -58 -2 -89 18 -53 33 -96
38 -404 51 -557 23 -1277 10 -1454 -27 -82 -17 -149 -19 -176 -5 -21 11 -54
64 -63 102 -4 15 -18 40 -32 56 -33 39 -50 82 -71 173 -9 41 -27 97 -39 124
-13 28 -28 74 -34 103 -13 63 -34 105 -73 151 -17 19 -39 55 -50 80 -10 25
-32 60 -47 76 -15 17 -44 53 -64 81 -21 29 -43 54 -50 57 -8 3 -23 32 -35 65
-20 53 -28 63 -80 95 -31 19 -77 43 -102 53 -80 31 -90 43 -150 168 -32 68
-70 132 -86 147 -31 27 -78 47 -184 75 -36 10 -101 35 -144 56 -114 54 -171
54 -267 -4 -74 -44 -142 -119 -168 -186 -8 -18 -27 -49 -44 -70 -16 -20 -47
-73 -68 -117 -61 -124 -123 -233 -152 -263 -14 -15 -34 -50 -45 -79 -11 -29
-33 -69 -50 -90 -16 -21 -37 -54 -47 -73 -10 -19 -30 -49 -45 -67 -15 -17 -38
-62 -50 -100 -12 -37 -37 -93 -55 -123 -18 -30 -45 -100 -60 -155 -15 -55 -32
-108 -37 -118 -12 -24 -25 -111 -33 -227 -4 -52 -15 -145 -26 -207 -10 -61
-19 -156 -19 -210 0 -82 -3 -104 -21 -133 -36 -58 -50 -110 -64 -235 -11 -95
-19 -130 -40 -167 -31 -55 -50 -159 -60 -328 -7 -110 -9 -120 -57 -226 -38
-83 -58 -115 -79 -128 -16 -10 -37 -29 -46 -44 -18 -29 -91 -113 -147 -172
-19 -19 -43 -54 -55 -76 -11 -23 -31 -55 -45 -71 -13 -16 -36 -55 -50 -87 -14
-32 -39 -73 -56 -92 -32 -37 -60 -117 -60 -175 0 -31 -9 -48 -45 -89 -56 -63
-80 -137 -66 -201 9 -40 40 -79 61 -79 18 0 39 32 60 87 12 32 38 76 60 98 21
22 41 50 45 63 3 12 24 42 45 67 21 24 46 67 55 95 11 33 28 59 47 73 17 12
45 52 63 88 18 36 41 71 50 79 9 7 26 32 37 54 11 23 37 59 57 81 21 22 50 61
64 86 15 26 42 56 62 68 19 11 35 24 35 29 0 5 11 14 24 22 30 15 41 7 84 -66
21 -36 36 -50 61 -57 51 -13 65 -32 62 -85 -2 -36 -9 -54 -36 -83 -18 -20 -36
-50 -39 -65 -4 -16 -13 -38 -21 -48 -15 -19 -16 -19 -64 4 -57 26 -107 23
-203 -12 -43 -15 -63 -29 -79 -54 -11 -19 -36 -52 -54 -74 -19 -22 -43 -66
-55 -98 -12 -31 -30 -66 -39 -77 -24 -26 -39 -55 -62 -123 -11 -31 -30 -73
-43 -92 -13 -19 -31 -58 -41 -87 -9 -29 -27 -67 -40 -85 -46 -63 -54 -86 -75
-203 -12 -65 -23 -122 -25 -126 -12 -19 -56 -313 -70 -469 -16 -181 -22 -226
-49 -345 -19 -86 -25 -238 -15 -366 5 -73 17 -125 48 -216 l42 -120 -25 -68
c-14 -38 -33 -76 -43 -86 -17 -17 -20 -17 -66 3 -53 23 -60 20 -74 -31 -4 -18
-1 -28 12 -35 50 -28 62 -51 69 -126 4 -41 14 -92 21 -113 17 -49 12 -61 -32
-82 -27 -13 -52 -16 -99 -12 -45 3 -69 1 -83 -10 -48 -33 -13 -65 98 -89 86
-18 122 -36 192 -97 46 -39 49 -45 49 -90 0 -44 -4 -53 -52 -103 -48 -51 -53
-54 -87 -48 -20 3 -56 15 -81 26 -25 11 -73 28 -106 39 -34 10 -72 27 -85 37
-13 10 -49 30 -80 45 -45 22 -60 35 -78 72 -12 24 -26 47 -32 50 -19 12 -7 26
84 89 107 74 149 116 139 133 -5 7 -55 25 -113 40 -88 23 -125 27 -244 27
-121 1 -149 -2 -208 -23 -41 -14 -74 -32 -82 -45 -8 -12 -33 -32 -55 -45 -27
-15 -47 -37 -64 -71 -23 -45 -74 -117 -147 -203 -44 -52 -79 -155 -86 -252 -2
-44 0 -154 5 -245 15 -242 16 -245 202 -432 83 -84 155 -157 161 -163 6 -5 38
-36 72 -68 34 -32 82 -77 107 -101 25 -23 67 -60 94 -81 27 -21 68 -63 90 -92
35 -45 50 -56 103 -74 34 -11 77 -31 95 -45 18 -13 62 -38 98 -54 36 -17 101
-48 145 -69 44 -21 98 -44 120 -51 22 -7 65 -28 95 -46 30 -19 87 -41 125 -50
39 -10 79 -24 89 -33 29 -24 56 -91 56 -138 0 -61 -45 -233 -88 -338 -43 -105
-109 -179 -207 -235 l-60 -34 -160 -1 c-116 0 -167 -4 -184 -14 -13 -7 -61
-46 -105 -86 -58 -51 -97 -77 -134 -89 -31 -11 -59 -28 -68 -42 -17 -24 -46
-176 -64 -324 -6 -47 -17 -121 -25 -165 -35 -187 -16 -906 26 -1025 11 -30 29
-86 40 -125 11 -38 22 -78 25 -87 3 -10 21 -36 39 -58 48 -57 60 -108 44 -183
-24 -115 9 -387 55 -458 15 -21 36 -65 47 -96 12 -32 28 -65 35 -73 16 -19 34
-91 64 -255 12 -66 34 -149 50 -185 33 -78 55 -172 69 -300 6 -52 24 -134 40
-182 16 -48 35 -113 41 -145 7 -32 25 -79 42 -105 16 -25 38 -79 50 -120 11
-40 33 -93 48 -118 16 -25 40 -74 53 -110 14 -36 34 -83 45 -105 11 -22 30
-73 41 -113 14 -44 34 -86 53 -107 16 -20 43 -67 59 -106 16 -39 40 -84 52
-99 13 -15 34 -60 47 -100 l23 -73 -24 -21 c-14 -12 -36 -28 -49 -38 -35 -23
-20 -43 52 -72 63 -26 155 -88 178 -120 37 -53 57 -63 113 -58 66 5 183 -28
226 -64 16 -13 63 -40 104 -59 41 -19 79 -41 86 -49 7 -8 47 -29 89 -46 42
-18 95 -43 117 -57 22 -14 68 -42 101 -63 54 -33 64 -44 78 -87 24 -72 31
-159 16 -187 -30 -57 -86 -52 -178 17 -78 59 -148 74 -441 97 -139 11 -257 23
-262 26 -15 9 -339 19 -589 18 -218 -1 -244 -3 -355 -28 -93 -21 -182 -32
-390 -46 -244 -16 -277 -20 -339 -44 -38 -15 -113 -38 -167 -51 -98 -24 -124
-34 -169 -66 -14 -10 -61 -32 -105 -48 -72 -26 -181 -77 -360 -170 -33 -17
-68 -31 -77 -31 -10 0 -27 -13 -38 -28 -12 -16 -66 -68 -121 -117 -54 -48 -99
-93 -99 -101 0 -7 -21 -43 -47 -81 -70 -102 -90 -221 -57 -345 11 -46 13 -71
5 -106 -11 -54 -7 -63 51 -120 29 -28 72 -54 127 -77 46 -19 91 -41 101 -50 9
-8 44 -26 76 -39 33 -12 83 -39 112 -59 55 -38 106 -52 218 -62 38 -4 138 -20
223 -37 141 -27 165 -29 275 -23 71 4 161 3 216 -4 84 -9 273 -17 610 -26 79
-2 120 -8 165 -25 57 -21 73 -22 355 -21 162 1 311 6 330 11 85 20 475 33 845
27 405 -6 417 -7 540 -38 44 -11 134 -25 200 -30 66 -5 138 -11 160 -14 67 -9
490 -46 655 -57 334 -23 2981 -31 3124 -10 97 15 713 17 782 2 27 -5 159 -12
294 -14 135 -3 400 -8 590 -12 190 -4 456 -3 593 1 l247 7 46 37 c26 20 68 55
95 78 56 49 85 58 234 78 61 8 143 24 184 36 41 11 136 26 210 34 184 19 196
21 276 61 67 32 162 65 305 103 36 10 124 21 195 24 186 10 332 34 470 77 66
21 166 47 222 59 56 11 119 27 140 36 21 9 90 29 153 46 63 16 140 40 170 53
54 24 130 43 259 65 35 5 93 24 129 41 36 17 97 38 136 47 39 8 94 28 121 43
32 18 86 34 149 45 73 13 121 28 181 59 45 22 99 49 121 58 53 24 168 129 200
184 22 38 26 53 22 101 -5 53 -8 59 -64 110 -69 64 -257 159 -380 193 -44 12
-101 34 -129 50 -27 15 -93 38 -145 50 -52 12 -129 31 -170 42 -41 11 -136 34
-210 52 -74 18 -172 45 -218 59 -57 19 -149 35 -299 52 -119 14 -264 34 -322
46 -97 19 -140 21 -491 20 -338 0 -400 -2 -511 -20 -69 -11 -182 -25 -250 -31
-68 -6 -169 -18 -224 -26 -55 -9 -162 -19 -237 -24 -122 -7 -144 -11 -205 -39
-65 -30 -70 -31 -117 -19 -63 17 -68 33 -16 54 30 12 46 27 61 55 12 24 40 53
73 74 29 20 63 49 75 65 12 17 39 39 60 49 21 11 45 31 54 44 27 42 119 87
177 87 62 0 173 57 195 100 8 16 30 41 49 57 53 44 134 157 157 218 34 91 119
190 293 340 32 28 77 69 99 91 23 23 53 48 67 54 14 7 41 26 60 42 98 82 203
141 279 157 29 6 81 26 115 45 33 19 79 39 101 46 22 7 60 27 85 45 25 17 65
44 90 59 25 14 68 46 96 69 49 40 64 50 159 107 23 14 60 41 81 60 22 20 69
47 104 60 65 24 186 95 247 145 17 14 55 35 85 47 29 12 76 38 103 58 28 21
64 45 81 53 17 9 37 23 45 33 7 9 32 28 54 42 22 13 58 41 80 62 22 21 67 62
100 91 149 130 244 228 268 275 14 28 33 57 43 65 9 8 32 37 49 64 18 28 43
59 55 70 12 11 35 48 50 82 16 34 42 79 58 100 16 21 42 74 57 118 15 44 34
92 41 106 7 14 22 72 34 129 13 62 34 128 55 169 18 37 36 83 39 102 10 64 16
593 8 734 l-8 141 -42 63 c-23 35 -42 69 -42 77 0 21 -29 63 -109 157 -41 47
-82 104 -92 127 -46 103 -242 321 -324 359 -24 11 -59 33 -77 49 -37 32 -223
124 -335 166 -39 15 -77 34 -84 42 -6 8 -57 28 -113 45 -55 17 -117 41 -136
54 -20 12 -78 34 -130 49 -52 15 -111 38 -131 51 -85 55 -108 59 -464 63 -308
4 -337 2 -418 -17 -49 -12 -107 -32 -130 -45 -23 -13 -79 -39 -123 -56 -81
-32 -82 -32 -136 -16 -37 10 -65 28 -93 56 -21 22 -44 40 -50 40 -6 0 -26 16
-45 35 l-34 35 35 36 c37 39 83 62 204 104 169 58 389 245 508 432 20 31 42
60 48 64 6 3 21 30 34 58 13 28 35 62 50 76 15 14 41 52 57 85 17 33 42 75 56
94 14 18 35 66 48 107 12 40 33 88 47 106 18 25 30 63 46 157 12 69 33 152 47
185 43 101 65 323 70 696 4 336 7 365 38 410 12 19 29 53 36 75 7 22 31 81 54
130 l41 90 0 141 0 142 -35 43 c-66 83 -68 197 -3 293 15 22 39 70 53 106 22
55 33 70 77 100 28 19 71 51 95 71 89 74 282 159 361 159 35 0 59 -37 68 -104
10 -69 -17 -384 -37 -438 -42 -115 -64 -193 -83 -304 -11 -66 -29 -141 -40
-165 -28 -63 -44 -190 -37 -278 10 -112 26 -181 43 -188 9 -4 31 11 58 37 l44
43 18 -37 c20 -42 23 -36 -49 -87 -19 -14 -21 -21 -13 -44 9 -25 33 -47 125
-112 17 -13 47 -19 100 -21 81 -3 86 -1 193 70 73 49 82 76 82 243 0 122 -3
141 -47 315 -47 182 -62 266 -72 385 -2 33 -9 116 -15 185 -6 69 -12 260 -15
425 l-4 300 28 55 c16 30 42 69 60 85 17 17 40 47 51 67 10 21 29 46 41 58 28
26 42 116 22 145 -72 102 -80 110 -140 131 -32 11 -72 26 -87 32 -16 7 -32 12
-37 12 -5 0 -41 16 -81 35 -41 19 -79 35 -86 35 -8 0 -35 12 -63 26 -98 51
-299 70 -504 48 -138 -14 -179 -25 -235 -58 -43 -25 -166 -77 -281 -118 -67
-24 -94 -39 -125 -73 -22 -23 -49 -45 -60 -48 -11 -4 -31 -25 -45 -47 -13 -22
-37 -49 -52 -60 -16 -11 -41 -47 -57 -78 -16 -32 -37 -64 -46 -72 -9 -8 -28
-37 -42 -64 -14 -28 -40 -67 -58 -86 -23 -24 -40 -58 -55 -109 -12 -41 -35
-98 -51 -126 -18 -33 -32 -77 -39 -125 -6 -41 -17 -95 -25 -120 -8 -25 -21
-89 -30 -144 -8 -54 -18 -104 -22 -110 -15 -28 -51 -59 -81 -72 -19 -7 -32
-19 -30 -26 7 -20 106 -47 173 -47 103 -2 185 -20 250 -56 34 -19 96 -43 138
-54 47 -12 89 -29 108 -45 17 -14 35 -26 39 -26 18 0 80 -62 80 -80 0 -10 11
-32 25 -48 16 -20 25 -42 25 -65 0 -44 -10 -51 -46 -32 -16 8 -34 15 -41 15
-6 0 -21 14 -33 30 -20 28 -106 75 -172 95 -13 4 -46 18 -75 31 -125 56 -416
58 -524 3 -24 -12 -66 -33 -94 -47 -48 -24 -75 -45 -201 -154 -30 -27 -58 -48
-62 -48 -4 0 -34 -22 -67 -50 -32 -27 -80 -57 -106 -65 -26 -9 -53 -22 -59
-30 -18 -22 -108 -48 -142 -41 -47 9 -58 24 -58 75 0 44 2 49 39 69 21 12 50
37 65 56 14 19 44 45 65 57 22 12 45 34 51 49 16 38 58 80 92 92 24 9 28 15
23 32 -23 75 -9 180 36 269 27 52 48 165 56 305 6 115 7 116 39 147 38 34 64
116 64 197 0 60 19 104 58 141 34 30 36 43 47 235 4 66 13 122 25 152 16 41
17 50 5 67 -7 11 -23 47 -34 81 -17 50 -22 95 -26 254 -5 175 -8 203 -36 300
-22 81 -32 141 -39 250 -10 156 -16 185 -53 250 -28 48 -45 104 -57 191 -6 39
-17 67 -35 89 -15 18 -38 56 -51 85 -13 30 -39 72 -57 94 -22 25 -40 62 -51
103 -14 50 -27 73 -57 101 -21 20 -39 40 -39 45 0 15 -134 147 -166 163 -17 9
-37 29 -44 46 -7 17 -26 36 -45 45 -18 9 -42 31 -53 50 -11 19 -34 42 -51 51
-17 8 -34 26 -37 40 -3 14 -23 40 -44 58 -20 17 -45 45 -55 61 -10 15 -36 39
-56 52 -29 18 -41 34 -50 66 -6 23 -24 74 -39 113 -23 57 -32 108 -49 265 -30
278 -38 325 -65 415 -14 44 -30 116 -36 160 -18 137 -20 145 -49 178 -35 40
-38 49 -51 166 -11 97 -18 118 -56 163 -12 15 -32 56 -43 91 -13 38 -34 75
-51 92 -18 17 -36 50 -45 83 -10 31 -27 64 -43 79 -15 13 -36 34 -47 46 -11
11 -32 33 -47 47 -117 108 -158 156 -163 189 -15 100 -28 136 -70 197 -25 37
-45 71 -45 77 0 13 -86 126 -114 149 -12 10 -38 18 -61 18 -68 1 -151 25 -192
57 -21 17 -75 46 -119 67 -70 31 -92 36 -155 36 -47 0 -83 -6 -99 -15z m716
-771 c56 -6 73 -12 103 -39 20 -18 51 -40 68 -49 18 -9 48 -40 66 -69 19 -28
41 -58 49 -65 9 -7 26 -38 39 -70 12 -31 37 -82 55 -112 18 -30 40 -84 49
-120 9 -36 32 -114 50 -175 38 -124 60 -270 52 -361 -6 -75 -39 -156 -61 -148
-21 8 -54 79 -66 144 -6 30 -23 72 -38 94 -40 58 -54 86 -64 131 -5 22 -23 57
-40 78 -34 44 -58 120 -58 189 0 41 -5 54 -35 87 -37 41 -65 97 -65 131 0 19
-30 55 -141 167 -23 24 -51 58 -62 75 -11 18 -28 39 -38 46 -24 17 -25 58 -1
72 9 5 29 8 44 5 15 -2 58 -7 94 -11z m-4383 -934 c0 -54 -7 -58 -37 -24 -29
33 -32 52 -11 60 8 4 15 13 15 22 0 15 1 15 16 0 10 -10 17 -33 17 -58z m4695
-724 c4 -63 3 -68 -14 -64 -15 2 -21 16 -28 65 -5 34 -5 79 -1 100 l8 38 15
-35 c8 -19 17 -66 20 -104z m826 -608 c48 -31 106 -99 106 -124 0 -7 20 -36
45 -64 25 -28 45 -56 45 -63 0 -7 16 -29 36 -48 49 -46 129 -168 153 -233 11
-29 33 -75 50 -101 48 -76 50 -126 9 -262 -5 -18 -15 -33 -21 -33 -7 0 -25 -7
-41 -15 -35 -18 -42 -13 -59 46 -10 36 -21 48 -54 67 -23 13 -52 40 -64 60
-21 35 -63 82 -152 174 -21 21 -53 65 -72 98 -18 32 -47 73 -65 92 -31 33 -69
93 -112 178 -19 37 -23 61 -23 131 0 115 11 129 105 129 58 0 73 -4 114 -32z
m-1290 -608 c34 -5 78 -22 105 -39 25 -16 83 -39 128 -51 45 -12 103 -35 128
-51 25 -16 62 -36 83 -44 20 -9 66 -33 102 -54 36 -22 83 -45 105 -51 54 -17
60 -22 194 -149 107 -101 119 -115 135 -168 10 -32 29 -74 42 -94 35 -51 43
-85 59 -259 28 -294 13 -478 -45 -554 -17 -23 -41 -64 -54 -92 -13 -28 -36
-60 -52 -73 -15 -12 -35 -35 -45 -50 -21 -34 -156 -171 -169 -171 -5 0 -20
-19 -34 -42 -14 -24 -34 -49 -45 -55 -12 -7 -34 -39 -50 -72 -24 -47 -46 -71
-109 -119 -103 -78 -120 -86 -232 -107 -52 -9 -124 -23 -160 -30 -72 -14 -137
-8 -187 18 -18 10 -79 24 -135 33 -107 16 -154 28 -248 63 -30 11 -82 28 -114
37 -33 10 -74 30 -90 45 -17 14 -51 36 -75 48 -24 13 -82 60 -130 106 -47 45
-106 93 -131 105 -71 36 -147 120 -180 200 -15 37 -39 88 -53 112 -14 23 -35
72 -47 108 -11 36 -27 79 -35 95 -41 89 -44 289 -7 375 10 25 31 95 45 156 15
62 36 127 47 146 11 19 33 74 50 123 16 49 39 103 52 119 12 17 34 53 49 79
26 47 123 157 139 157 5 0 34 22 65 49 31 27 97 70 148 96 82 41 102 47 187
54 136 12 495 13 564 1z m-4506 -101 c81 -22 165 -49 187 -59 22 -10 61 -27
86 -38 26 -12 69 -40 97 -64 28 -24 65 -52 82 -63 30 -19 57 -71 115 -225 16
-43 35 -374 35 -619 0 -178 -11 -250 -45 -305 -7 -12 -25 -58 -40 -103 -14
-45 -36 -94 -48 -109 -12 -15 -38 -58 -57 -96 -31 -61 -152 -205 -230 -275
-117 -104 -125 -110 -220 -133 -51 -13 -112 -34 -136 -47 -25 -14 -74 -29
-116 -35 -40 -5 -89 -16 -108 -24 -19 -9 -62 -18 -95 -21 -74 -7 -230 29 -356
80 -46 19 -111 40 -144 47 -33 7 -80 23 -105 35 -47 24 -140 115 -180 175 -13
19 -56 76 -95 125 -40 50 -89 124 -109 165 -53 108 -118 225 -137 247 -55 61
-72 191 -50 379 11 97 13 103 119 313 l107 213 105 101 c147 142 222 205 320
269 82 54 88 56 170 63 47 3 166 13 265 20 410 33 405 34 583 -16z m6337 -426
c10 -154 21 -196 59 -231 37 -33 38 -42 52 -277 6 -110 14 -139 86 -335 18
-49 20 -69 14 -191 -4 -99 -12 -157 -30 -215 -26 -88 -41 -167 -55 -297 -6
-54 -20 -109 -34 -140 -21 -46 -41 -116 -62 -225 -4 -18 -22 -55 -40 -82 -36
-54 -48 -84 -65 -173 -9 -43 -21 -69 -52 -104 -22 -26 -45 -58 -51 -72 -24
-56 -33 -61 -85 -44 -79 26 -87 40 -86 141 1 143 14 253 39 322 13 36 35 130
50 210 14 80 39 192 55 250 41 154 79 370 86 490 6 104 13 140 55 275 11 39
22 99 24 135 1 36 5 97 9 135 8 83 -3 129 -39 157 -14 11 -24 26 -21 34 3 7 1
14 -5 16 -5 2 -10 48 -12 104 -2 88 1 107 22 152 16 33 31 52 45 55 12 2 24 5
28 6 3 0 9 -43 13 -96z m2290 -817 c28 -14 91 -37 140 -51 50 -15 99 -32 110
-39 11 -7 37 -18 57 -25 65 -21 82 -73 55 -165 -15 -48 -46 -72 -117 -91 -53
-14 -59 -13 -156 15 -109 31 -368 151 -377 173 -3 8 -8 34 -12 58 -6 43 -5 46
42 91 26 26 64 51 83 57 51 15 118 6 175 -23z m-6084 -353 c21 -4 51 -25 86
-61 l53 -55 0 -116 0 -116 -44 -67 c-49 -71 -105 -123 -176 -158 -24 -13 -60
-35 -80 -50 -40 -32 -55 -36 -196 -50 -150 -14 -242 -1 -307 43 -85 59 -118
69 -179 56 -39 -9 -62 -21 -90 -50 -46 -46 -138 -79 -243 -86 -56 -4 -95 1
-193 25 -113 29 -127 34 -173 76 -28 25 -55 46 -59 46 -14 0 -50 108 -50 149
0 20 9 71 19 112 21 77 28 86 117 151 36 27 38 28 64 10 15 -9 40 -32 56 -51
23 -27 25 -36 16 -50 -40 -54 -52 -80 -58 -128 -4 -34 -2 -64 6 -83 14 -35 80
-97 117 -111 46 -17 126 -1 179 37 26 19 53 34 60 34 15 0 120 101 157 152 44
60 134 74 218 34 24 -11 44 -34 68 -77 28 -50 42 -65 79 -81 55 -25 132 -18
181 15 19 12 63 38 100 57 44 24 75 50 96 79 26 38 30 52 32 119 2 106 12 164
30 185 17 18 57 22 114 10z m2838 -577 c68 -11 114 -24 165 -50 39 -20 108
-45 153 -55 145 -35 228 -119 180 -182 -17 -22 -122 -79 -146 -79 -32 0 -109
50 -149 97 -44 51 -110 78 -215 88 -34 3 -78 8 -97 10 -52 6 -145 50 -169 81
-26 32 -26 36 -3 64 33 40 127 49 281 26z m-7168 -91 c105 -14 179 -38 187
-62 6 -20 -97 -112 -132 -117 -17 -3 -110 -7 -206 -10 -96 -3 -240 -11 -320
-18 -156 -12 -176 -10 -229 22 l-34 21 43 44 c64 65 131 90 300 113 179 24
256 26 391 7z m7003 -405 c37 -6 103 -24 145 -41 42 -17 127 -44 190 -60 65
-16 122 -36 132 -46 10 -10 21 -39 24 -65 7 -45 5 -50 -29 -84 -33 -33 -38
-35 -83 -29 -66 9 -286 117 -337 166 -22 22 -44 39 -49 39 -21 0 -117 53 -117
64 0 15 38 66 48 66 4 0 38 -5 76 -10z m-6873 -81 c76 -25 139 -58 139 -74 0
-13 -32 -44 -70 -68 -23 -15 -151 -42 -380 -82 -52 -9 -129 -25 -170 -36 -41
-11 -84 -18 -96 -15 -24 6 -64 66 -64 95 0 10 14 25 33 34 189 91 228 107 312
122 50 8 117 22 150 29 82 18 74 18 146 -5z m-698 -1143 c54 -8 104 -19 112
-26 19 -16 20 -74 2 -89 -8 -6 -27 -14 -44 -17 -24 -5 -37 0 -65 24 -33 30
-85 54 -141 66 -53 12 -42 70 11 60 15 -2 71 -10 125 -18z m9293 -611 c9 -22
-45 -123 -78 -148 -16 -12 -46 -37 -67 -54 -21 -18 -54 -40 -73 -48 -20 -8
-49 -25 -64 -38 -63 -52 -122 -69 -165 -47 -10 6 -19 19 -19 29 0 24 117 135
162 154 20 9 44 27 54 42 9 14 31 33 48 42 17 9 47 28 66 43 48 38 126 52 136
25z m-970 -847 c12 -32 38 -77 58 -100 20 -23 36 -46 36 -52 0 -51 76 -175
159 -263 17 -18 31 -37 31 -41 0 -21 -28 -29 -75 -23 -45 5 -52 10 -67 41 -9
19 -33 51 -52 70 -28 26 -43 54 -61 115 -14 44 -40 104 -58 133 -38 57 -57
159 -34 174 25 16 41 1 63 -54z m-2871 -882 c99 -9 286 -20 415 -26 129 -5
280 -14 335 -19 55 -5 386 -10 736 -11 545 -1 645 1 703 14 125 29 375 14 477
-29 56 -24 75 -27 184 -26 143 0 165 4 221 44 l42 30 118 -8 118 -7 30 -35
c17 -19 55 -50 84 -69 55 -36 92 -84 92 -122 0 -12 -9 -40 -20 -62 -27 -54
-27 -174 1 -289 19 -78 21 -106 16 -311 -6 -262 -22 -476 -42 -575 -7 -38 -19
-117 -25 -175 -15 -142 -36 -263 -59 -335 -10 -33 -24 -121 -30 -195 -19 -221
-31 -299 -56 -365 -13 -35 -33 -116 -45 -181 -12 -66 -37 -166 -55 -224 -18
-58 -43 -156 -54 -218 -14 -72 -32 -134 -51 -172 -16 -32 -39 -101 -50 -152
-12 -51 -34 -131 -50 -178 -16 -47 -36 -116 -45 -155 -9 -38 -34 -109 -56
-157 -22 -47 -46 -121 -54 -163 -8 -42 -26 -96 -40 -120 -14 -23 -35 -76 -46
-116 -11 -41 -31 -90 -44 -109 -13 -19 -29 -55 -35 -80 -6 -25 -15 -57 -21
-71 -10 -26 -106 -116 -146 -138 -13 -6 -39 -36 -58 -66 -19 -30 -39 -55 -44
-55 -13 0 -28 -59 -36 -140 -9 -99 -12 -107 -52 -131 -20 -13 -52 -36 -70 -52
-18 -16 -64 -44 -102 -62 -38 -18 -71 -38 -75 -43 -3 -6 -23 -16 -44 -22 -20
-7 -76 -30 -123 -51 -48 -22 -128 -48 -179 -60 -104 -22 -128 -33 -150 -63
-37 -54 -109 -120 -155 -143 -27 -14 -65 -37 -83 -51 -41 -31 -133 -51 -237
-52 -44 0 -115 -7 -158 -15 -43 -8 -115 -15 -160 -15 -45 0 -120 -9 -167 -20
-47 -11 -114 -20 -150 -20 -73 -1 -164 -16 -325 -56 -60 -15 -134 -26 -164
-26 -30 1 -81 -8 -113 -19 -39 -13 -107 -22 -215 -29 -158 -9 -271 -25 -286
-39 -4 -4 34 -20 85 -35 51 -15 131 -41 177 -58 46 -17 118 -34 160 -39 74 -8
246 -57 236 -67 -3 -3 -46 -11 -97 -18 -211 -30 -375 -43 -593 -49 -171 -5
-253 -11 -321 -26 -79 -17 -145 -20 -480 -25 -214 -2 -438 -8 -499 -12 -184
-12 -459 3 -578 32 -56 13 -154 30 -217 36 -124 12 -233 34 -286 56 -19 8 -87
19 -151 24 -378 31 -462 44 -541 84 -36 18 -57 38 -74 67 -16 29 -39 51 -73
69 -64 34 -81 73 -46 101 28 23 69 24 201 5 113 -16 166 -30 241 -61 66 -28
214 -43 444 -46 228 -3 339 -13 594 -54 l235 -37 140 16 c78 9 164 16 192 16
64 0 144 11 144 19 0 11 -221 49 -384 66 -124 14 -157 14 -200 4 -61 -15 -83
-13 -115 12 -36 29 -116 49 -192 49 -60 0 -225 20 -424 51 -38 6 -108 15 -155
19 -47 5 -100 13 -119 19 -19 6 -76 18 -125 27 -61 11 -111 27 -151 49 -34 19
-88 38 -125 44 -85 15 -148 39 -160 60 -5 10 -35 32 -67 50 -32 17 -69 40 -83
51 -17 13 -58 25 -124 34 -72 11 -108 22 -135 40 -20 14 -63 44 -96 66 -33 23
-69 50 -80 60 -11 10 -39 27 -63 39 -23 12 -55 35 -70 52 -15 17 -48 42 -74
55 -37 19 -220 170 -286 236 -69 70 -133 155 -219 291 -18 28 -46 65 -62 81
-17 17 -39 53 -51 80 -11 27 -36 74 -54 105 -42 69 -61 134 -80 277 -18 138
-69 292 -117 355 -21 27 -43 73 -53 110 -10 35 -30 87 -45 114 -16 28 -38 77
-50 110 -12 33 -35 83 -51 110 -16 28 -40 98 -54 155 -22 93 -64 213 -128 365
-42 101 -57 151 -58 190 0 22 -12 112 -26 200 -14 88 -28 176 -31 195 -2 19
-15 71 -28 115 -14 44 -31 140 -40 213 -8 73 -25 167 -37 210 -12 43 -23 112
-24 157 -1 44 -7 210 -14 369 -6 160 -9 299 -5 310 3 12 10 73 15 136 6 91 15
131 38 190 17 41 34 92 38 114 7 38 81 158 113 184 19 15 200 102 212 102 5 0
49 18 98 40 108 49 155 51 271 14 45 -14 125 -34 178 -44 92 -18 180 -19 1637
-21 l1540 -3 135 36 c128 34 145 37 330 41 134 3 237 12 328 27 262 43 341 48
702 45 207 -2 417 -9 525 -19z m5020 -146 c28 -5 106 -18 175 -30 179 -30 244
-49 302 -86 28 -19 80 -43 114 -54 35 -12 87 -40 116 -63 141 -111 215 -182
246 -235 19 -32 42 -66 52 -77 10 -11 28 -40 40 -65 12 -25 41 -66 64 -91 100
-113 114 -135 140 -219 14 -45 37 -100 52 -121 37 -53 43 -97 43 -299 1 -203
-15 -329 -53 -425 -15 -37 -36 -116 -46 -175 -10 -62 -29 -133 -45 -167 -15
-32 -36 -87 -47 -123 -26 -83 -110 -239 -160 -297 -21 -24 -46 -59 -55 -76
-36 -71 -178 -222 -287 -307 -32 -25 -80 -64 -107 -87 -27 -24 -69 -53 -92
-64 -23 -12 -56 -32 -73 -45 -16 -13 -48 -31 -69 -40 -22 -9 -64 -35 -95 -59
-30 -23 -72 -48 -93 -55 -21 -6 -50 -22 -65 -35 -15 -12 -56 -37 -92 -55 -36
-18 -76 -43 -90 -56 -14 -12 -50 -34 -80 -47 -31 -14 -75 -41 -99 -62 -25 -20
-62 -45 -83 -56 -22 -11 -42 -27 -45 -35 -3 -8 -26 -27 -52 -41 -25 -15 -62
-41 -83 -57 -37 -32 -80 -50 -331 -141 -26 -9 -71 -35 -100 -56 -60 -46 -84
-54 -132 -45 -48 9 -58 32 -46 103 31 183 43 241 53 267 21 52 69 97 147 136
42 21 114 57 161 80 47 24 95 51 108 61 13 10 53 28 89 40 37 12 93 39 126 60
32 21 75 43 95 50 20 6 57 24 82 40 25 15 65 37 90 48 25 11 59 34 75 51 17
18 54 48 84 68 29 19 81 63 115 97 33 34 86 77 116 97 30 19 62 43 70 53 8 10
37 35 65 55 88 66 259 243 315 325 29 44 68 97 86 117 18 20 42 54 53 75 10
21 31 49 46 63 15 14 40 50 55 80 15 30 39 75 53 100 49 86 61 257 31 444 -18
113 -82 285 -141 376 -19 30 -47 76 -63 102 -20 32 -46 57 -89 82 -34 19 -75
51 -92 71 -17 19 -36 35 -43 35 -6 0 -38 13 -71 28 -33 16 -109 41 -170 56
-60 15 -156 43 -211 62 -93 31 -116 35 -285 44 -101 6 -221 13 -265 17 -63 4
-108 0 -194 -17 -112 -22 -112 -22 -139 -3 -14 11 -31 37 -38 59 -6 21 -23 76
-37 120 -34 106 -35 187 -3 209 150 105 182 121 280 140 39 8 95 22 122 31 78
26 399 41 500 24z m155 -890 c19 -8 66 -41 103 -74 79 -71 160 -199 197 -311
12 -38 31 -86 41 -106 10 -20 25 -78 34 -130 21 -120 14 -203 -21 -250 -14
-19 -41 -63 -59 -99 -18 -36 -43 -74 -55 -85 -12 -11 -31 -37 -41 -57 -11 -21
-33 -48 -50 -60 -17 -13 -44 -48 -59 -78 -32 -63 -242 -269 -313 -308 -23 -13
-61 -42 -83 -65 -23 -23 -66 -63 -95 -89 -30 -26 -76 -67 -104 -91 -27 -24
-77 -58 -110 -74 -112 -56 -220 -114 -265 -143 -25 -16 -65 -34 -90 -40 -54
-15 -96 -35 -132 -66 -15 -12 -51 -30 -80 -39 -29 -10 -76 -30 -105 -46 -60
-33 -140 -47 -172 -29 -21 10 -22 16 -16 63 4 29 18 79 31 112 12 33 28 87 35
120 14 72 35 128 65 175 13 19 30 67 39 105 9 39 31 95 49 125 64 106 85 171
86 267 0 34 8 67 25 100 17 32 30 84 40 155 17 123 32 174 69 226 39 57 45
109 46 358 l0 230 35 41 c52 62 93 82 206 104 57 11 110 26 119 34 49 45 62
46 335 42 183 -3 270 -8 295 -17z m-2577 -4804 c18 -14 46 -28 62 -31 17 -4
57 -16 90 -27 63 -21 62 -21 255 6 77 11 153 13 285 9 99 -3 455 -4 790 -3
560 2 623 0 770 -19 88 -11 203 -31 255 -45 52 -14 154 -34 225 -46 72 -12
193 -37 270 -55 77 -18 165 -38 195 -45 30 -7 89 -27 130 -45 41 -18 100 -38
130 -44 31 -6 70 -20 87 -31 l32 -19 -16 -46 c-8 -25 -25 -52 -37 -59 -11 -8
-66 -24 -121 -36 -55 -12 -136 -39 -180 -60 -44 -21 -129 -49 -190 -63 -60
-14 -127 -33 -148 -42 -21 -8 -85 -27 -142 -40 -58 -14 -142 -41 -188 -60 -54
-22 -121 -40 -188 -50 -69 -10 -124 -25 -164 -44 -33 -16 -96 -39 -140 -50
-44 -11 -116 -36 -160 -55 -72 -31 -85 -33 -130 -26 -27 5 -70 17 -95 29 -55
24 -113 19 -181 -16 -52 -27 -37 -25 -540 -43 -157 -6 -322 -15 -365 -20 -116
-15 -388 -34 -471 -34 -46 1 -80 6 -95 16 -70 45 -148 42 -234 -11 -44 -27
-62 -31 -189 -42 -82 -7 -212 -9 -315 -6 -96 3 -227 1 -290 -3 -63 -5 -232
-11 -375 -14 -216 -3 -277 -8 -360 -26 -131 -28 -317 -37 -415 -19 -41 7 -100
12 -130 11 -30 -2 -107 4 -170 12 -271 35 -1460 51 -1975 26 -300 -14 -2409
-8 -2630 8 -77 6 -221 13 -320 17 -99 4 -187 8 -195 10 -8 1 -62 6 -120 9 -58
4 -130 11 -160 16 -113 19 -290 31 -529 35 -242 4 -484 13 -610 21 -81 5 -141
22 -162 45 -32 35 -256 47 -261 14 -1 -5 42 -18 95 -28 88 -16 101 -22 130
-53 31 -33 87 -59 227 -104 l55 -17 -35 -6 c-175 -31 -404 -32 -890 -7 -368
19 -464 30 -522 60 -81 41 -89 59 -91 181 -2 80 2 115 16 151 17 44 22 49 70
63 71 21 101 19 135 -10 35 -29 55 -32 48 -7 -2 9 -8 56 -11 103 l-7 86 35 21
c19 12 53 28 76 37 23 8 60 27 84 43 23 16 60 35 82 42 22 7 66 27 98 43 56
29 62 30 270 40 154 7 243 7 327 -2 86 -8 179 -9 365 -1 138 6 453 15 700 20
487 10 755 23 795 38 47 18 275 72 350 82 131 19 253 -8 333 -72 24 -18 66
-37 108 -48 39 -10 85 -30 106 -47 50 -38 256 -125 360 -151 45 -11 112 -34
150 -50 119 -52 315 -79 646 -88 122 -3 247 -10 277 -16 128 -24 779 -39 1840
-42 l465 -1 160 28 c105 19 206 30 292 32 72 2 196 13 275 24 79 11 199 22
268 25 90 4 161 15 247 36 67 16 159 32 205 36 46 3 148 14 228 25 185 25 261
58 363 161 37 37 67 71 67 74 0 4 -10 27 -21 52 -17 35 -19 48 -11 67 15 33
61 54 134 62 35 3 83 15 107 25 24 10 80 29 125 42 44 13 106 33 136 45 74 27
114 27 153 -3z m-961 -166 c81 -23 52 -56 -86 -99 -50 -15 -111 -38 -136 -51
-111 -56 -318 -73 -565 -45 -71 8 -191 15 -265 15 -74 0 -153 5 -175 10 -22 6
-60 13 -85 16 -25 4 -47 8 -49 10 -14 12 24 22 126 33 65 7 183 27 263 43 148
31 362 61 550 77 124 11 369 6 422 -9z m-4919 -1294 c15 -10 27 -22 27 -27 0
-20 -59 -31 -165 -31 -99 0 -210 14 -224 27 -2 3 0 10 6 16 40 40 302 51 356
15z m4144 -9 c13 -13 8 -47 -7 -47 -4 0 -31 -16 -59 -35 -51 -35 -84 -39 -117
-13 -7 5 -43 8 -81 7 -48 -1 -80 4 -106 16 -42 19 -67 15 -67 -13 0 -10 -8
-26 -18 -35 -23 -21 -146 -39 -206 -31 -25 4 -66 1 -91 -5 -60 -15 -741 -24
-858 -10 -94 10 -157 33 -139 51 14 14 235 35 457 42 591 20 692 26 740 40 55
16 115 24 278 36 59 4 111 11 115 15 11 12 144 -3 159 -18z"/>
<path d="M10750 13841 c-58 -28 -118 -61 -135 -74 -16 -13 -46 -33 -65 -44
-43 -26 -120 -114 -148 -168 -11 -22 -30 -49 -42 -60 -29 -26 -107 -181 -124
-248 -21 -81 -29 -223 -17 -310 14 -98 48 -166 120 -238 31 -31 75 -78 99
-105 23 -27 59 -60 80 -74 20 -14 58 -45 83 -70 72 -71 124 -109 185 -136 31
-14 72 -36 90 -50 84 -64 294 -99 434 -72 41 9 136 16 210 17 153 2 223 17
260 57 14 14 42 35 63 46 47 24 142 117 179 175 15 24 32 43 38 43 16 0 37 51
49 120 6 37 27 97 48 139 l38 73 0 143 0 142 -33 52 c-35 57 -46 97 -57 204
-6 62 -11 72 -55 125 -27 31 -54 63 -62 70 -7 6 -37 35 -66 62 -48 46 -69 55
-112 52 -49 -4 -145 23 -174 48 -17 15 -67 49 -110 75 l-79 48 -296 4 -296 4
-105 -50z"/>
<path d="M6235 13832 c-74 -8 -197 -44 -265 -76 -41 -20 -79 -36 -85 -36 -7 0
-22 -12 -36 -26 -13 -14 -58 -53 -100 -85 -102 -79 -199 -198 -254 -312 -38
-79 -46 -106 -56 -195 -15 -134 -1 -243 45 -339 18 -38 41 -93 51 -123 12 -37
33 -69 64 -101 55 -54 130 -142 153 -180 9 -16 32 -35 50 -45 18 -9 56 -32 84
-51 68 -46 189 -79 341 -95 109 -11 135 -10 235 7 164 26 231 49 264 88 15 17
41 40 58 51 40 24 138 121 170 169 14 20 35 50 47 66 17 23 23 55 34 167 7 77
20 167 29 202 10 38 14 78 11 100 -22 125 -58 281 -79 330 -22 56 -38 117 -51
194 -8 50 -113 161 -173 182 -24 9 -69 31 -100 51 -32 19 -73 40 -92 46 -33
10 -279 18 -345 11z"/>
<path d="M3696 12191 c-18 -29 -27 -214 -16 -340 16 -180 23 -196 45 -101 26
115 31 271 11 363 -17 74 -29 97 -40 78z"/>
<path d="M13335 11270 c3 -5 10 -10 16 -10 5 0 9 5 9 10 0 6 -7 10 -16 10 -8
0 -12 -4 -9 -10z"/>
</g>
</svg>
